<svg width="42" height="42" viewBox="0 0 42 42" fill="none" xmlns="http://www.w3.org/2000/svg">
<g id="BoundingBox">
<path id="Vector" opacity="0.2" d="M34.125 6.5625H28.875C28.1501 6.5625 27.5625 7.15013 27.5625 7.875V13.125C27.5625 13.8499 28.1501 14.4375 28.875 14.4375H34.125C34.8499 14.4375 35.4375 13.8499 35.4375 13.125V7.875C35.4375 7.15013 34.8499 6.5625 34.125 6.5625Z" fill="#009379"/>
<path id="Vector_2" opacity="0.2" d="M7.875 6.63672H13.125C13.8089 6.63672 14.3633 7.19112 14.3633 7.875V13.125C14.3633 13.8089 13.8089 14.3633 13.125 14.3633H7.875C7.19112 14.3633 6.63672 13.8089 6.63672 13.125V7.875C6.63672 7.19112 7.19112 6.63672 7.875 6.63672Z" fill="#009379" stroke="#009379" stroke-width="0.148438"/>
<path id="Vector_3" opacity="0.2" d="M28.875 27.6367H34.125C34.8089 27.6367 35.3633 28.1911 35.3633 28.875V34.125C35.3633 34.8089 34.8089 35.3633 34.125 35.3633H28.875C28.1911 35.3633 27.6367 34.8089 27.6367 34.125V28.875C27.6367 28.1911 28.1911 27.6367 28.875 27.6367Z" fill="#009379" stroke="#009379" stroke-width="0.148438"/>
<path id="Vector_4" opacity="0.2" d="M7.875 27.6367H13.125C13.8089 27.6367 14.3633 28.1911 14.3633 28.875V34.125C14.3633 34.8089 13.8089 35.3633 13.125 35.3633H7.875C7.19112 35.3633 6.63672 34.8089 6.63672 34.125V28.875C6.63672 28.1911 7.19112 27.6367 7.875 27.6367Z" fill="#009379" stroke="#009379" stroke-width="0.148438"/>
<path id="Vector_5" d="M34.125 6.5625H28.875C28.1501 6.5625 27.5625 7.15013 27.5625 7.875V13.125C27.5625 13.8499 28.1501 14.4375 28.875 14.4375H34.125C34.8499 14.4375 35.4375 13.8499 35.4375 13.125V7.875C35.4375 7.15013 34.8499 6.5625 34.125 6.5625Z" stroke="#009379" stroke-width="2.375" stroke-linecap="round" stroke-linejoin="round"/>
<path id="Vector_6" d="M13.125 6.5625H7.875C7.15013 6.5625 6.5625 7.15013 6.5625 7.875V13.125C6.5625 13.8499 7.15013 14.4375 7.875 14.4375H13.125C13.8499 14.4375 14.4375 13.8499 14.4375 13.125V7.875C14.4375 7.15013 13.8499 6.5625 13.125 6.5625Z" stroke="#009379" stroke-width="2.375" stroke-linecap="round" stroke-linejoin="round"/>
<path id="Vector_7" d="M34.125 27.5625H28.875C28.1501 27.5625 27.5625 28.1501 27.5625 28.875V34.125C27.5625 34.8499 28.1501 35.4375 28.875 35.4375H34.125C34.8499 35.4375 35.4375 34.8499 35.4375 34.125V28.875C35.4375 28.1501 34.8499 27.5625 34.125 27.5625Z" stroke="#009379" stroke-width="2.375" stroke-linecap="round" stroke-linejoin="round"/>
<path id="Vector_8" d="M13.125 27.5625H7.875C7.15013 27.5625 6.5625 28.1501 6.5625 28.875V34.125C6.5625 34.8499 7.15013 35.4375 7.875 35.4375H13.125C13.8499 35.4375 14.4375 34.8499 14.4375 34.125V28.875C14.4375 28.1501 13.8499 27.5625 13.125 27.5625Z" stroke="#009379" stroke-width="2.375" stroke-linecap="round" stroke-linejoin="round"/>
<path id="Vector_9" d="M10.5 27.5625V14.4375" stroke="#009379" stroke-width="2.375" stroke-linecap="round" stroke-linejoin="round"/>
<path id="Vector_10" d="M27.5625 31.5H14.4375" stroke="#009379" stroke-width="2.375" stroke-linecap="round" stroke-linejoin="round"/>
<path id="Vector_11" d="M31.5 14.4375V27.5625" stroke="#009379" stroke-width="2.375" stroke-linecap="round" stroke-linejoin="round"/>
<path id="Vector_12" d="M14.4375 10.5H27.5625" stroke="#009379" stroke-width="2.375" stroke-linecap="round" stroke-linejoin="round"/>
</g>
</svg>
