<svg width="42" height="42" viewBox="0 0 42 42" fill="none" xmlns="http://www.w3.org/2000/svg">
<g id="Confetti">
<path id="Vector" opacity="0.2" d="M16.8 32.55L9.45 25.2L6.21797 34.1086C6.12862 34.3424 6.10885 34.597 6.16105 34.8417C6.21325 35.0865 6.3352 35.3109 6.51216 35.4879C6.68911 35.6648 6.91352 35.7868 7.15827 35.839C7.40302 35.8912 7.65765 35.8714 7.89141 35.782L16.8 32.55Z" fill="#F8D57E"/>
<path id="Vector_2" opacity="0.2" d="M32.6124 24.8424L32.6126 24.8426C32.7608 24.9895 32.8695 25.1716 32.9285 25.3717C32.9875 25.5719 32.995 25.7838 32.9502 25.9877C32.9054 26.1915 32.8098 26.3807 32.6723 26.5377C32.5348 26.6948 32.3599 26.8145 32.1637 26.8858L25.4816 29.3141L12.6859 16.5185L15.1143 9.83633C15.1856 9.64017 15.3053 9.46521 15.4623 9.32771C15.6193 9.19021 15.8085 9.09463 16.0124 9.04984C16.2162 9.00505 16.4281 9.01252 16.6283 9.07155C16.8285 9.13057 17.0105 9.23924 17.1575 9.38745L17.1577 9.38768L32.6124 24.8424Z" fill="#F8D57E" stroke="#F8D57E" stroke-width="0.148438"/>
<path id="Vector_3" d="M6.21797 34.1086L15.0445 9.81098C15.1201 9.60306 15.247 9.41762 15.4134 9.27188C15.5798 9.12613 15.7804 9.02482 15.9965 8.97735C16.2125 8.92988 16.4371 8.93779 16.6493 9.00036C16.8615 9.06292 17.0544 9.1781 17.2102 9.3352L32.6648 24.7899C32.8219 24.9456 32.9371 25.1386 32.9997 25.3508C33.0622 25.563 33.0702 25.7875 33.0227 26.0036C32.9752 26.2196 32.8739 26.4202 32.7282 26.5866C32.5824 26.7531 32.397 26.8799 32.1891 26.9555L7.89141 35.7821C7.65765 35.8714 7.40302 35.8912 7.15827 35.839C6.91352 35.7868 6.68911 35.6648 6.51216 35.4879C6.3352 35.3109 6.21325 35.0865 6.16105 34.8418C6.10885 34.597 6.12862 34.3424 6.21797 34.1086V34.1086Z" stroke="#F8D57E" stroke-width="2.375" stroke-linecap="round" stroke-linejoin="round"/>
<path id="Vector_4" d="M27.5625 11.8125C27.5625 11.8125 27.5625 7.875 31.5 7.875C35.4375 7.875 35.4375 3.9375 35.4375 3.9375" stroke="#F8D57E" stroke-width="2.375" stroke-linecap="round" stroke-linejoin="round"/>
<path id="Vector_5" d="M16.8 32.55L9.44998 25.2" stroke="#F8D57E" stroke-width="2.375" stroke-linecap="round" stroke-linejoin="round"/>
<path id="Vector_6" d="M23.625 2.625V6.5625" stroke="#F8D57E" stroke-width="2.375" stroke-linecap="round" stroke-linejoin="round"/>
<path id="Vector_7" d="M35.4375 18.375L38.0625 21" stroke="#F8D57E" stroke-width="2.375" stroke-linecap="round" stroke-linejoin="round"/>
<path id="Vector_8" d="M35.4375 13.125L39.375 11.8125" stroke="#F8D57E" stroke-width="2.375" stroke-linecap="round" stroke-linejoin="round"/>
<path id="Vector_9" d="M12.6 16.5375L25.4625 29.4" stroke="#F8D57E" stroke-width="2.375" stroke-linecap="round" stroke-linejoin="round"/>
</g>
</svg>
