<svg width="42" height="42" viewBox="0 0 42 42" fill="none" xmlns="http://www.w3.org/2000/svg">
<g id="MagicWand">
<path id="Vector" opacity="0.2" d="M11.4351 35.8148C11.313 35.9389 11.1674 36.0373 11.0069 36.1046C10.8463 36.1718 10.674 36.2064 10.5 36.2064C10.3259 36.2064 10.1536 36.1718 9.99307 36.1046C9.83252 36.0373 9.68695 35.9389 9.56482 35.8148L6.18513 32.4352C6.06112 32.313 5.96264 32.1675 5.89542 32.0069C5.8282 31.8464 5.79358 31.6741 5.79358 31.5C5.79358 31.3259 5.8282 31.1536 5.89542 30.9931C5.96264 30.8325 6.06112 30.687 6.18513 30.5648L23.625 13.125L28.875 18.375L11.4351 35.8148Z" fill="#FF6250"/>
<path id="Vector_2" d="M35.4375 21V28.875" stroke="#FF6250" stroke-width="2.375" stroke-linecap="round" stroke-linejoin="round"/>
<path id="Vector_3" d="M31.5 24.9375H39.375" stroke="#FF6250" stroke-width="2.375" stroke-linecap="round" stroke-linejoin="round"/>
<path id="Vector_4" d="M13.7812 6.5625V13.125" stroke="#FF6250" stroke-width="2.375" stroke-linecap="round" stroke-linejoin="round"/>
<path id="Vector_5" d="M10.5 9.84375H17.0625" stroke="#FF6250" stroke-width="2.375" stroke-linecap="round" stroke-linejoin="round"/>
<path id="Vector_6" d="M27.5625 30.1874V35.4374" stroke="#FF6250" stroke-width="2.375" stroke-linecap="round" stroke-linejoin="round"/>
<path id="Vector_7" d="M24.9375 32.8125H30.1875" stroke="#FF6250" stroke-width="2.375" stroke-linecap="round" stroke-linejoin="round"/>
<path id="Vector_8" d="M30.5856 6.17398L6.18873 30.5708C5.67617 31.0834 5.67617 31.9144 6.18873 32.427L9.58201 35.8203C10.0946 36.3328 10.9256 36.3328 11.4382 35.8203L35.835 11.4234C36.3476 10.9109 36.3476 10.0798 35.835 9.56727L32.4417 6.17398C31.9292 5.66142 31.0981 5.66142 30.5856 6.17398Z" stroke="#FF6250" stroke-width="2.375" stroke-linecap="round" stroke-linejoin="round"/>
<path id="Vector_9" d="M23.625 13.125L28.875 18.375" stroke="#FF6250" stroke-width="2.375" stroke-linecap="round" stroke-linejoin="round"/>
</g>
</svg>
